<svg
   version="1.0"
   viewBox="0 0 2499.4541 511.75159"
   preserveAspectRatio="xMidYMid meet">
  <g
     transform="matrix(0.1,0,0,-0.1,-5.0666667,511.8606)"
     fill="#000000"
     stroke="none"
     id="g2722"
     style="fill:#ffffff">
    <path
       d="M 1680,5105 C 1318,5059 988,4917 711,4685 387,4415 163,4035 80,3614 52,3477 42,3197 59,3065 139,2455 531,1669 1206,763 1435,456 1742,81 1806,31 c 56,-44 143,-39 201,12 48,42 315,363 467,560 757,988 1193,1837 1267,2471 17,142 7,403 -21,540 -85,430 -317,817 -654,1091 -389,315 -894,461 -1386,400 z m 373,-920 c 355,-62 640,-315 743,-660 36,-122 44,-313 19,-436 -58,-289 -241,-528 -502,-659 -229,-114 -515,-126 -753,-32 -152,61 -305,175 -399,298 -63,84 -133,223 -161,324 -28,96 -38,290 -21,396 82,505 572,857 1074,769 z"
       id="path2704"
       style="fill:#ffffff" />
    <path
       d="m 5156,4363 c -66,-17 -137,-96 -156,-173 -8,-32 -10,-516 -8,-1665 l 3,-1620 22,-40 c 25,-47 64,-85 113,-111 34,-18 79,-19 1071,-19 h 1036 l 48,30 c 75,47 109,101 113,185 2,38 -1,84 -8,105 -15,45 -59,96 -108,127 l -37,23 -885,5 -885,5 -5,1500 c -5,1375 -6,1503 -22,1530 -23,43 -77,91 -120,109 -35,15 -130,20 -172,9 z"
       id="path2706"
       style="fill:#ffffff" />
    <path
       d="m 16280,4359 c -45,-19 -89,-59 -117,-107 l -28,-47 -3,-462 -3,-461 -88,-4 c -77,-3 -94,-7 -137,-33 -136,-85 -152,-277 -31,-380 50,-43 90,-55 184,-55 h 72 l 4,-667 c 5,-720 5,-730 61,-895 91,-272 300,-440 619,-497 107,-19 263,-25 311,-11 99,27 170,121 169,225 0,69 -18,117 -62,167 -41,47 -95,68 -195,74 -102,8 -189,29 -242,59 -53,31 -121,105 -143,158 -39,90 -41,131 -41,767 v 618 l 183,4 182,3 46,33 c 125,90 138,263 27,369 -58,56 -89,63 -273,63 h -165 v 424 c 0,245 -4,446 -10,477 -13,65 -48,118 -103,155 -35,24 -54,29 -117,31 -41,2 -86,-2 -100,-8 z"
       id="path2708"
       style="fill:#ffffff" />
    <path
       d="m 22290,4354 c -42,-18 -95,-67 -118,-109 -16,-27 -17,-137 -22,-1260 -6,-1372 -1,-1270 -77,-1425 -49,-100 -169,-221 -268,-272 -106,-55 -174,-72 -295,-72 -178,-1 -328,60 -451,183 -115,115 -172,245 -188,426 -10,113 -21,142 -76,197 -108,107 -289,84 -370,-46 -26,-42 -30,-61 -33,-130 -8,-180 59,-414 166,-580 349,-543 1038,-697 1561,-349 223,149 392,379 465,635 45,155 47,253 44,1488 -3,1088 -4,1157 -21,1191 -25,50 -74,98 -122,120 -49,23 -146,24 -195,3 z"
       id="path2710"
       style="fill:#ffffff" />
    <path
       d="m 23855,4353 c -229,-49 -447,-200 -587,-406 -194,-286 -203,-695 -22,-999 67,-112 221,-267 329,-329 138,-80 216,-106 405,-134 242,-36 426,-163 520,-360 46,-97 60,-159 60,-273 0,-179 -63,-328 -189,-452 -80,-79 -152,-123 -261,-161 -84,-29 -241,-31 -345,-5 -147,38 -279,134 -391,287 -53,71 -107,99 -190,99 -165,0 -284,-159 -232,-311 45,-134 261,-346 453,-446 178,-92 325,-127 540,-126 141,0 172,3 260,27 116,30 293,115 379,180 279,212 424,469 456,808 32,337 -84,648 -334,893 -194,189 -385,281 -670,320 -215,30 -346,131 -416,322 -19,53 -22,77 -18,161 3,87 7,106 38,168 78,159 254,274 421,274 69,0 196,-36 251,-71 27,-18 70,-59 95,-93 114,-151 187,-197 286,-181 181,30 263,218 166,381 -19,31 -72,97 -118,146 -141,149 -307,244 -493,282 -97,20 -298,20 -393,-1 z"
       id="path2712"
       style="fill:#ffffff" />
    <path
       d="m 8660,3261 c -504,-93 -917,-501 -1016,-1006 -24,-123 -24,-377 -1,-498 49,-248 168,-466 353,-651 190,-190 419,-312 674,-357 97,-17 353,-17 450,0 316,56 605,236 803,500 89,119 136,208 182,344 123,368 71,787 -137,1104 -164,249 -411,440 -683,527 -170,54 -441,70 -625,37 z m 400,-473 c 244,-46 474,-237 574,-476 42,-99 58,-186 58,-307 0,-141 -19,-222 -83,-354 -45,-92 -62,-116 -148,-201 -161,-163 -309,-229 -531,-237 -237,-9 -407,53 -576,210 -127,119 -216,279 -245,442 -17,98 -7,282 21,370 47,152 144,295 264,391 192,154 420,209 666,162 z"
       id="path2714"
       style="fill:#ffffff" />
    <path
       d="m 11600,3266 c -366,-65 -661,-261 -868,-575 -250,-379 -264,-924 -35,-1316 120,-205 342,-415 548,-518 78,-39 216,-85 312,-104 121,-24 375,-24 496,0 214,43 421,142 566,273 67,60 90,109 91,190 0,129 -86,223 -211,232 -74,6 -123,-12 -204,-73 -83,-63 -227,-133 -310,-150 -89,-19 -260,-19 -347,0 -154,32 -268,96 -394,220 -102,101 -156,187 -201,320 -24,73 -27,94 -27,235 -1,136 2,164 22,230 100,318 360,533 688,570 198,22 399,-34 556,-155 31,-24 71,-51 90,-61 160,-84 348,28 348,205 -1,107 -51,174 -212,281 -138,93 -269,149 -433,185 -97,22 -378,28 -475,11 z"
       id="path2716"
       style="fill:#ffffff" />
    <path
       d="m 14175,3269 c -356,-52 -670,-255 -880,-569 -164,-245 -233,-549 -195,-860 65,-524 479,-976 991,-1080 203,-42 407,-36 608,16 110,29 287,111 385,178 75,52 86,50 86,-12 0,-116 125,-221 251,-209 65,6 104,24 149,69 72,72 70,46 70,708 0,633 -4,707 -51,862 -58,197 -165,375 -319,529 -200,201 -429,320 -700,364 -102,16 -297,18 -395,4 z m 373,-485 c 44,-10 113,-36 170,-65 165,-83 280,-199 361,-364 61,-123 83,-217 82,-355 0,-226 -86,-420 -254,-576 -116,-108 -233,-169 -380,-201 -109,-23 -298,-13 -402,21 -265,86 -468,303 -535,571 -26,101 -28,262 -4,366 34,156 146,341 262,435 204,166 438,222 700,168 z"
       id="path2718"
       style="fill:#ffffff" />
    <path
       d="m 18605,3274 c -300,-44 -517,-148 -722,-347 -209,-202 -332,-427 -378,-694 -20,-113 -19,-345 0,-459 63,-356 291,-679 621,-877 314,-188 767,-218 1116,-73 178,73 352,197 392,278 71,142 -6,306 -160,338 -74,16 -139,-4 -229,-71 -88,-65 -209,-122 -302,-143 -104,-23 -274,-21 -374,4 -192,49 -352,158 -465,317 -45,62 -104,180 -104,208 0,13 103,15 919,15 1014,0 971,-3 1039,63 70,67 83,120 71,286 -25,330 -169,614 -428,844 -163,145 -359,245 -571,292 -73,16 -359,29 -425,19 z m 372,-500 c 157,-45 261,-111 381,-239 71,-76 162,-231 162,-276 0,-18 -20,-19 -760,-19 -660,0 -760,2 -760,15 0,26 39,115 77,173 82,129 183,222 313,287 187,94 395,115 587,59 z"
       id="path2720"
       style="fill:#ffffff" />
  </g>
</svg>
