<svg
   xmlns="http://www.w3.org/2000/svg"
   preserveAspectRatio="xMidYMid meet"
   version="1"
   viewBox="0 0 4389 1056"
   >
   <g fill="#943ec5" stroke="none" transform="matrix(.1 0 0 -.1 0 1056)">
      <path d="M4890 10554c-19-2-102-11-185-20-814-84-1627-377-2332-841-666-437-1242-1047-1652-1748-345-590-582-1279-670-1950-34-261-44-422-44-710 0-388 28-679 99-1035C523 2160 2153 526 4240 106c360-73 640-99 1040-99 488 0 847 44 1305 160 665 168 1310 477 1860 891 1004 754 1703 1833 1983 3062 146 636 168 1351 61 2010-273 1699-1362 3160-2913 3911-540 261-1091 420-1716 495-100 12-240 17-535 19-220 2-416 1-435-1zm870-978c947-115 1772-494 2460-1130 303-281 615-672 815-1025 491-866 669-1875 504-2861-113-681-390-1322-814-1885-233-310-552-627-869-862-1529-1139-3637-1136-5161 7-391 294-746 669-1012 1070-367 553-599 1170-683 1814-113 869 22 1705 399 2472 103 210 151 294 287 499 316 476 726 886 1199 1199 340 225 629 368 999 495 349 120 681 187 1106 225 112 10 641-3 770-18z"></path>
      <path d="M5045 8784c-729-59-1353-298-1925-740-149-114-480-445-594-594-405-524-638-1090-722-1755-22-172-25-595-6-760 86-742 352-1362 822-1916 176-207 457-462 565-513 153-73 342-56 483 44 140 98 210 245 199 420-9 156-62 251-211 377-479 408-770 907-876 1504-31 174-39 528-16 719 93 759 503 1435 1121 1847 275 183 609 315 946 372 442 76 912 34 1329-116 593-214 1089-664 1375-1248 194-396 270-726 270-1165-1-320-34-522-135-815-143-414-360-722-786-1116-311-287-141-788 284-834 71-8 180 13 256 51 97 47 353 285 519 482 474 563 751 1223 818 1954 17 188 6 625-19 798-99 656-347 1220-760 1730-118 144-361 385-514 507-520 416-1102 662-1770 748-118 16-543 28-653 19z"></path>
      <path d="M5175 6514c-92-14-198-39-260-61-458-165-766-607-768-1103-1-309 89-544 306-792 141-160 207-284 259-481 21-80 22-101 27-972l6-890 24-60c79-199 237-332 440-372 282-56 561 117 657 407 17 51 19 120 24 935 6 867 6 881 28 958 51 183 137 343 254 474 207 230 308 486 308 782 0 328-118 612-349 842-171 170-340 263-576 314-69 16-321 28-380 19z"></path>
      <path d="M39255 8795c-156-35-252-89-375-214-79-79-103-111-137-181-23-47-50-112-60-145-17-57-18-203-21-2915-2-2552-1-2863 13-2933 31-154 97-272 219-392 93-91 176-144 291-183l80-27 1972-3c2216-3 2045-8 2213 74 82 41 109 61 196 148s107 114 147 196c56 113 77 207 77 338-1 222-69 380-232 538-87 85-141 122-228 159-131 55-109 54-1270 57-591 2-1274 4-1517 6l-443 2-2 2433-3 2432-23 73c-86 279-301 480-574 536-92 19-240 20-323 1z"></path>
      <path d="M12765 8744c-101-17-243-74-332-136-160-109-287-325-313-531-10-84-2-193 21-280 9-37 516-1310 1838-4620 424-1062 439-1096 540-1209 63-71 201-159 301-192 130-43 243-53 364-32 163 27 276 83 399 196 130 120 126 111 585 1263 231 578 735 1842 1120 2807 530 1328 705 1776 718 1840 59 295-87 628-344 784-226 137-480 151-719 41-147-68-257-165-333-294-21-36-377-914-790-1950l-753-1884-756 1890c-416 1039-772 1916-791 1949-48 81-170 202-255 252-114 67-240 104-365 107-58 2-118 1-135-1z"></path>
      <path d="M26688 8740c-304-52-566-312-619-614-18-104-7-273 24-369 75-231 263-414 512-498l70-24 792-3 793-3 2-2442 3-2442 23-70c87-258 284-451 528-516 108-29 287-29 396-1 270 72 486 299 544 571 11 55 14 457 14 2484v2417h753c474 0 776 4 816 11 164 26 285 91 416 223 151 152 214 307 215 523 0 116-11 179-47 277-66 176-234 350-413 426-140 59 58 54-2465 56-1270 1-2331-2-2357-6z"></path>
      <path d="M34355 8735c-232-43-433-192-538-402-33-64-2231-5575-2255-5652-13-42-17-90-17-196 1-131 3-146 32-227 78-220 214-370 416-455 112-47 194-64 307-65 143 0 264 32 382 103 119 70 223 181 285 304 12 22 357 879 768 1905s750 1868 754 1872c3 4 339-826 745-1845 406-1018 755-1885 775-1925 133-274 456-451 752-413 109 14 155 29 279 88 79 38 107 59 180 132 71 71 94 103 133 181 89 180 112 363 68 530-22 86-2217 5595-2263 5682-150 281-487 442-803 383z"></path>
      <path d="M19760 8661c-129-35-236-96-337-194-264-253-298-670-80-966 23-31 467-625 987-1321l945-1265 5-1255 5-1255 24-70c65-194 179-338 343-437 106-63 202-90 343-95 153-6 238 11 364 73 169 83 316 254 379 441l27 78 5 1250 5 1250 1021 1280c561 704 1039 1305 1062 1335 94 127 137 261 135 430-2 240-95 431-283 581-141 113-312 167-495 156-199-13-348-76-478-205-29-28-421-512-872-1075l-819-1025-763 1018c-419 561-781 1040-805 1066-133 145-329 224-548 223-68 0-128-6-170-18z"></path>
   </g>
</svg>