<?xml version="1.0" encoding="UTF-8" standalone="no"?>
<!-- Created with Inkscape (http://www.inkscape.org/) -->

<svg
   version="1.1"
   id="svg1988"
   xml:space="preserve"
   width="154.78209"
   height="35"
   viewBox="0 0 154.78209 35"
   sodipodi:docname="vytal-text-logo.svg"
   inkscape:version="1.1.2 (0a00cf5339, 2022-02-04)"
   xmlns:inkscape="http://www.inkscape.org/namespaces/inkscape"
   xmlns:sodipodi="http://sodipodi.sourceforge.net/DTD/sodipodi-0.dtd"
   xmlns="http://www.w3.org/2000/svg"
   xmlns:svg="http://www.w3.org/2000/svg"><defs
     id="defs1992"><linearGradient
       id="linearGradient3493"
       inkscape:swatch="solid"><stop
         style="stop-color:#000000;stop-opacity:1;"
         offset="0"
         id="stop3491" /></linearGradient><linearGradient
       id="linearGradient3443"
       inkscape:swatch="solid"><stop
         style="stop-color:#000000;stop-opacity:1;"
         offset="0"
         id="stop3441" /></linearGradient></defs><sodipodi:namedview
     id="namedview1990"
     pagecolor="#ffffff"
     bordercolor="#666666"
     borderopacity="1.0"
     inkscape:pageshadow="2"
     inkscape:pageopacity="0.0"
     inkscape:pagecheckerboard="0"
     showgrid="false"
     fit-margin-top="0"
     fit-margin-left="0"
     fit-margin-right="0"
     fit-margin-bottom="0"
     inkscape:zoom="3.102071"
     inkscape:cx="153.44588"
     inkscape:cy="21.276109"
     inkscape:window-width="1920"
     inkscape:window-height="1012"
     inkscape:window-x="0"
     inkscape:window-y="0"
     inkscape:window-maximized="1"
     inkscape:current-layer="text1515"
     height="336.09796px" /><g
     id="g1994"
     inkscape:groupmode="layer"
     inkscape:label="ink_ext_XXXXXX"
     transform="matrix(1.3333333,0,0,-1.3333333,-651.16228,963.35193)"
     style="display:inline"><g
       id="g1996"
       transform="matrix(0.01041361,0,0,0.01041362,438.98511,646.87986)"
       style="fill:#a55eea;fill-opacity:1;stroke-width:0.9975;stroke-miterlimit:4;stroke-dasharray:none"><path
         d="m 6024.57,6299.02 c 236.48,-9.01 357,-293.74 194.89,-469.43 -43.11,-46.74 -68,-107.39 -68,-170.98 v -356.57 c 0,-76.84 -62.88,-142.04 -139.71,-141 -74.94,1.01 -135.95,62.63 -135.95,137.81 v 359.75 c 0,62.21 -22.45,122.95 -65.28,168.08 -171.49,180.65 -37.65,481.93 214.05,472.34"
         style="fill:#a55eea;fill-opacity:1;fill-rule:nonzero;stroke:none;stroke-width:0.9975;stroke-miterlimit:4;stroke-dasharray:none"
         id="path1998" /><path
         d="m 5479.96,5351.64 c -199.26,160.18 -313.53,398.53 -313.53,653.93 0,462.43 376.21,838.64 838.65,838.64 462.42,0 838.65,-376.21 838.65,-838.64 0,-249.81 -110.21,-484.83 -302.36,-644.79 -48.79,-40.62 -121.33,-34.01 -161.96,14.81 -40.64,48.8 -34.02,121.31 14.81,161.95 435.48,362.57 179.51,1076.67 -389.14,1076.67 -574.02,0 -826.6,-725.08 -381.02,-1083.31 49.49,-39.8 57.37,-112.18 17.58,-161.68 -39.77,-49.48 -112.19,-57.38 -161.68,-17.58"
         style="fill:#a55eea;fill-opacity:1;fill-rule:nonzero;stroke:none;stroke-width:0.9975;stroke-miterlimit:4;stroke-dasharray:none"
         id="path2002" /></g><g
       aria-label="VYTAL"
       transform="scale(0.99999981,-1.0000002)"
       id="text1515"
       style="font-size:27.0756px;line-height:1.25;font-family:'TVA 2012';-inkscape-font-specification:'TVA 2012, ';fill:#a55eea;stroke-width:0.078102"><path
         d="m 533.1602,-718.66309 q -0.79323,-0.31729 -1.57324,0.0264 -0.79323,0.33051 -1.11052,1.12375 l -4.01903,10.08724 -4.03226,-10.08724 q -0.31729,-0.79324 -1.0973,-1.12375 -0.78001,-0.34373 -1.57324,-0.0264 -0.79323,0.31729 -1.13696,1.11052 -0.33052,0.78001 -0.0132,1.57324 l 5.93601,14.87308 q 0.23797,0.59492 0.75357,0.95187 0.52882,0.35696 1.16341,0.35696 0.63458,0 1.15018,-0.35696 0.52882,-0.35695 0.76679,-0.95187 l 5.93601,-14.87308 q 0.31729,-0.79323 -0.0264,-1.57324 -0.33052,-0.79323 -1.12375,-1.11052 z"
         id="path833" /><path
         d="m 545.29663,-699.96929 q 0.84611,0 1.42781,-0.59492 0.59493,-0.59493 0.59493,-1.42782 v -6.35906 l 5.57905,-6.99365 q 0.52882,-0.64781 0.43628,-1.4807 -0.0925,-0.83289 -0.75357,-1.36171 -0.64781,-0.5156 -1.4807,-0.42306 -0.83289,0.0926 -1.36171,0.74035 l -4.38921,5.49973 -4.07191,-5.44685 q -0.50238,-0.67424 -1.33528,-0.79323 -0.81967,-0.11898 -1.49391,0.3834 -0.67425,0.50238 -0.79323,1.33527 -0.11899,0.83289 0.38339,1.49392 l 5.23532,7.00687 v 6.39872 q 0,0.83289 0.59492,1.42782 0.59493,0.59492 1.42782,0.59492 z"
         id="path835" /><path
         d="m 562.166,-714.68372 v 12.8239 q 0,0.84611 0.59492,1.45425 0.60814,0.60815 1.45425,0.60815 0.85934,0 1.46748,-0.60815 0.59492,-0.60814 0.59492,-1.45425 v -12.8239 h 3.90005 q 0.85934,0 1.45426,-0.60814 0.60814,-0.59492 0.60814,-1.45426 0,-0.84611 -0.60814,-1.45425 -0.59492,-0.60814 -1.45426,-0.60814 h -11.91167 q -0.85934,0 -1.45426,0.60814 -0.60814,0.60814 -0.60814,1.45425 0,0.85934 0.60814,1.45426 0.59492,0.60814 1.45426,0.60814 z"
         id="path837" /><path
         d="m 580.96556,-717.5129 q -0.23797,-0.58171 -0.76679,-0.93866 -0.5156,-0.35695 -1.15019,-0.35695 -0.63458,0 -1.1634,0.35695 -0.5156,0.35695 -0.75357,0.93866 l -5.93601,14.88629 q -0.31729,0.79323 0.0132,1.57324 0.34374,0.79323 1.13697,1.0973 0.79323,0.31729 1.57324,-0.0132 0.78001,-0.34373 1.0973,-1.13696 l 4.03225,-10.08725 4.01904,10.08725 q 0.23797,0.60814 0.78001,0.95187 0.5156,0.35696 1.13696,0.35696 0.39662,0 0.76679,-0.15865 0.79323,-0.30407 1.12375,-1.0973 0.34373,-0.78001 0.0264,-1.57324 z"
         id="path839" /><path
         d="m 594.45048,-704.09409 v -12.82389 q 0,-0.85933 -0.60814,-1.46748 -0.60815,-0.59492 -1.45426,-0.59492 -0.85933,0 -1.45425,0.59492 -0.60815,0.60815 -0.60815,1.46748 v 14.88629 q 0,0.84611 0.60815,1.45426 0.59492,0.60814 1.45425,0.60814 h 10.00793 q 0.85933,0 1.45425,-0.60814 0.60815,-0.60815 0.60815,-1.45426 0,-0.85933 -0.60815,-1.45426 -0.59492,-0.60814 -1.45425,-0.60814 z"
         id="path841" /></g></g><g
     inkscape:groupmode="layer"
     id="layer5"
     inkscape:label="ink_ext_XXXXXX 2"
     style="display:inline"
     transform="translate(-651.16228,-636.64807)"><ellipse
       style="display:inline;fill:none;fill-opacity:1;stroke:#a55eea;stroke-width:3.13916;stroke-miterlimit:4;stroke-dasharray:none;stroke-opacity:1"
       id="path3359"
       cx="668.69019"
       cy="654.14807"
       rx="15.958326"
       ry="15.930421" /></g><g
     inkscape:groupmode="layer"
     id="layer4"
     inkscape:label="ink_ext_XXXXXX 1"
     style="display:inline"
     transform="translate(-651.16228,-636.64807)" /></svg>
