<?xml version="1.0" encoding="UTF-8" standalone="no"?>
<!-- Created with Inkscape (http://www.inkscape.org/) -->

<svg
   version="1.1"
   id="svg1988"
   xml:space="preserve"
   width="336.63403"
   height="336.09796"
   viewBox="0 0 336.63403 336.09796"
   sodipodi:docname="vytal-logo-background.svg"
   inkscape:version="1.1.2 (0a00cf5339, 2022-02-04)"
   xmlns:inkscape="http://www.inkscape.org/namespaces/inkscape"
   xmlns:sodipodi="http://sodipodi.sourceforge.net/DTD/sodipodi-0.dtd"
   xmlns="http://www.w3.org/2000/svg"
   xmlns:svg="http://www.w3.org/2000/svg"><defs
     id="defs1992"><linearGradient
       id="linearGradient3493"
       inkscape:swatch="solid"><stop
         style="stop-color:#000000;stop-opacity:1;"
         offset="0"
         id="stop3491" /></linearGradient><linearGradient
       id="linearGradient3443"
       inkscape:swatch="solid"><stop
         style="stop-color:#000000;stop-opacity:1;"
         offset="0"
         id="stop3441" /></linearGradient></defs><sodipodi:namedview
     id="namedview1990"
     pagecolor="#ffffff"
     bordercolor="#666666"
     borderopacity="1.0"
     inkscape:pageshadow="2"
     inkscape:pageopacity="0.0"
     inkscape:pagecheckerboard="0"
     showgrid="false"
     fit-margin-top="0"
     fit-margin-left="0"
     fit-margin-right="0"
     fit-margin-bottom="0"
     inkscape:zoom="1.4997434"
     inkscape:cx="130.02224"
     inkscape:cy="146.02498"
     inkscape:window-width="1920"
     inkscape:window-height="1012"
     inkscape:window-x="0"
     inkscape:window-y="0"
     inkscape:window-maximized="1"
     inkscape:current-layer="g1994" /><g
     inkscape:groupmode="layer"
     id="layer5"
     inkscape:label="ink_ext_XXXXXX 2"
     style="display:inline"
     transform="translate(-651.16235,-636.64809)"><ellipse
       style="display:inline;fill:#ffffff;fill-opacity:1;stroke:#a55eea;stroke-width:30.1447;stroke-miterlimit:4;stroke-dasharray:none;stroke-opacity:1"
       id="path3359"
       cx="819.47937"
       cy="804.69708"
       rx="153.24467"
       ry="152.97664" /></g><g
     id="g1994"
     inkscape:groupmode="layer"
     inkscape:label="ink_ext_XXXXXX"
     transform="matrix(1.3333333,0,0,-1.3333333,-651.16235,963.35191)"
     style="display:inline"><g
       id="g1996"
       transform="matrix(0.1,0,0,0.1,14.121465,-4.35597)"
       style="fill:#a55eea;fill-opacity:1;stroke-width:0.9975;stroke-miterlimit:4;stroke-dasharray:none"><path
         d="m 6024.57,6299.02 c 236.48,-9.01 357,-293.74 194.89,-469.43 -43.11,-46.74 -68,-107.39 -68,-170.98 v -356.57 c 0,-76.84 -62.88,-142.04 -139.71,-141 -74.94,1.01 -135.95,62.63 -135.95,137.81 v 359.75 c 0,62.21 -22.45,122.95 -65.28,168.08 -171.49,180.65 -37.65,481.93 214.05,472.34"
         style="fill:#a55eea;fill-opacity:1;fill-rule:nonzero;stroke:none;stroke-width:0.9975;stroke-miterlimit:4;stroke-dasharray:none"
         id="path1998" /><path
         d="m 5479.96,5351.64 c -199.26,160.18 -313.53,398.53 -313.53,653.93 0,462.43 376.21,838.64 838.65,838.64 462.42,0 838.65,-376.21 838.65,-838.64 0,-249.81 -110.21,-484.83 -302.36,-644.79 -48.79,-40.62 -121.33,-34.01 -161.96,14.81 -40.64,48.8 -34.02,121.31 14.81,161.95 435.48,362.57 179.51,1076.67 -389.14,1076.67 -574.02,0 -826.6,-725.08 -381.02,-1083.31 49.49,-39.8 57.37,-112.18 17.58,-161.68 -39.77,-49.48 -112.19,-57.38 -161.68,-17.58"
         style="fill:#a55eea;fill-opacity:1;fill-rule:nonzero;stroke:none;stroke-width:0.9975;stroke-miterlimit:4;stroke-dasharray:none"
         id="path2002" /></g></g><g
     inkscape:groupmode="layer"
     id="layer4"
     inkscape:label="ink_ext_XXXXXX 1"
     style="display:inline"
     transform="translate(-651.16235,-636.64809)" /></svg>
