<?xml version="1.0" encoding="UTF-8" standalone="no"?>
<!-- Created with Inkscape (http://www.inkscape.org/) -->

<svg
   width="28.742722mm"
   height="6.6145835mm"
   viewBox="0 0 28.742718 6.6145835"
   version="1.1"
   id="svg2591"
   inkscape:version="1.1.2 (0a00cf5339, 2022-02-04)"
   sodipodi:docname="logoText.svg"
   xmlns:inkscape="http://www.inkscape.org/namespaces/inkscape"
   xmlns:sodipodi="http://sodipodi.sourceforge.net/DTD/sodipodi-0.dtd"
   xmlns="http://www.w3.org/2000/svg"
   xmlns:svg="http://www.w3.org/2000/svg">
  <sodipodi:namedview
     id="namedview2593"
     pagecolor="#ffffff"
     bordercolor="#666666"
     borderopacity="1.0"
     inkscape:pageshadow="2"
     inkscape:pageopacity="0.0"
     inkscape:pagecheckerboard="true"
     inkscape:document-units="mm"
     showgrid="false"
     fit-margin-top="0"
     fit-margin-left="0"
     fit-margin-right="0"
     fit-margin-bottom="0"
     inkscape:zoom="0.77682379"
     inkscape:cx="243.94206"
     inkscape:cy="197.59951"
     inkscape:window-width="1920"
     inkscape:window-height="1043"
     inkscape:window-x="1920"
     inkscape:window-y="0"
     inkscape:window-maximized="1"
     inkscape:current-layer="layer1" />
  <defs
     id="defs2588" />
  <g
     inkscape:label="Layer 1"
     inkscape:groupmode="layer"
     id="layer1"
     transform="translate(-49.891827,-60.233696)">
    <g
       aria-label="VYTAL"
       id="text3864"
       style="font-weight:bold;font-size:35.2778px;line-height:2.95;font-family:Quicksand;-inkscape-font-specification:'Quicksand Bold';letter-spacing:0.804333px;fill:#333333;stroke-width:0.264583"
       transform="matrix(0.26434209,0,0,0.26434209,36.703317,44.311395)">
      <path
         d="m 69.506288,60.315107 q 0.881945,0 1.516945,0.599723 0.670278,0.564445 0.670278,1.44639 0,0.458611 -0.211666,0.9525 l -8.713617,20.39057 q -0.317501,0.705556 -0.917223,1.058334 -0.564445,0.3175 -1.164168,0.3175 -0.564444,-0.03528 -1.093611,-0.352778 -0.529167,-0.352778 -0.81139,-0.987779 L 50.068219,63.278443 q -0.105833,-0.211667 -0.141111,-0.423334 -0.03528,-0.246945 -0.03528,-0.458611 0,-1.023057 0.740834,-1.552224 0.740834,-0.564445 1.411112,-0.564445 1.340556,0 1.940279,1.375835 l 7.725839,18.168067 -1.234723,0.03528 7.090838,-18.203345 q 0.599722,-1.340557 1.940279,-1.340557 z"
         id="path52266" />
      <path
         d="m 91.935895,60.279829 q 0.811389,0 1.446389,0.635001 0.670279,0.599722 0.670279,1.552223 0,0.3175 -0.105834,0.670278 -0.07055,0.317501 -0.282222,0.635001 l -8.008061,11.465285 0.635,-2.434168 v 10.124729 q 0,0.917223 -0.635,1.552223 -0.599723,0.599723 -1.411112,0.599723 -0.881945,0 -1.516946,-0.599723 -0.599722,-0.635 -0.599722,-1.552223 v -9.842507 l 0.282222,1.12889 -7.620005,-10.124729 q -0.352778,-0.458611 -0.493889,-0.881945 -0.141111,-0.423334 -0.141111,-0.776112 0,-0.9525 0.740833,-1.552223 0.740834,-0.599723 1.516946,-0.599723 0.987778,0 1.728612,0.987779 l 6.773338,9.348617 -0.987778,-0.141111 6.24417,-9.136951 q 0.740834,-1.058334 1.763891,-1.058334 z"
         id="path52268" />
      <path
         d="m 106.74541,85.080124 q -0.98778,0 -1.62278,-0.599723 -0.635,-0.635 -0.635,-1.552223 V 62.467053 h 4.58612 v 20.461125 q 0,0.917223 -0.67028,1.552223 -0.635,0.599723 -1.65806,0.599723 z M 98.949019,64.44261 q -0.917223,0 -1.552223,-0.564445 -0.599723,-0.564445 -0.599723,-1.481667 0,-0.917223 0.599723,-1.44639 0.635,-0.564445 1.552223,-0.564445 h 15.663341 q 0.91723,0 1.51695,0.564445 0.635,0.564444 0.635,1.481667 0,0.917223 -0.635,1.481668 -0.59972,0.529167 -1.51695,0.529167 z"
         id="path52270" />
      <path
         d="m 128.57525,65.924278 -7.62,17.921123 c -0.16463,0.446852 -0.42334,0.79963 -0.77611,1.058334 -0.32926,0.235185 -0.6938,0.352778 -1.09362,0.352778 -0.635,0 -1.10537,-0.176389 -1.41111,-0.529167 -0.30574,-0.352778 -0.45861,-0.787871 -0.45861,-1.305279 0,-0.211667 0.0353,-0.435093 0.10583,-0.670278 l 8.78418,-21.096125 c 0.18815,-0.470371 0.47037,-0.834908 0.84666,-1.093612 0.39982,-0.258704 0.82315,-0.364537 1.27,-0.3175 0.42333,0 0.81139,0.129352 1.16417,0.388055 0.3763,0.235185 0.64676,0.576204 0.81139,1.023057 l 8.67834,20.672791 c 0.11759,0.305741 0.17639,0.587964 0.17639,0.846668 0,0.635 -0.21167,1.140648 -0.635,1.516945 -0.39981,0.376297 -0.84667,0.564445 -1.34056,0.564445 -0.42333,0 -0.81139,-0.129352 -1.16417,-0.388056 -0.32925,-0.258704 -0.58796,-0.611482 -0.77611,-1.058334 L 127.5522,66.135944 Z"
         id="path52272"
         sodipodi:nodetypes="cccssscccccccscscccc" />
      <path
         d="m 156.47294,80.952621 q 0.91722,0 1.51694,0.599723 0.635,0.564445 0.635,1.481667 0,0.881945 -0.635,1.481668 -0.59972,0.564445 -1.51694,0.564445 h -11.46529 q -0.91722,0 -1.55222,-0.599723 -0.59973,-0.635 -0.59973,-1.552223 V 62.537609 q 0,-0.917223 0.635,-1.516946 0.63501,-0.635 1.62278,-0.635 0.84667,0 1.48167,0.635 0.67028,0.599723 0.67028,1.516946 v 19.014735 l -0.77611,-0.599723 z"
         id="path52274" />
    </g>
  </g>
</svg>
