<?xml version="1.0" encoding="UTF-8" standalone="no"?>
<!-- Created with Inkscape (http://www.inkscape.org/) -->

<svg
   version="1.1"
   id="svg2"
   width="234.46722"
   height="234.46719"
   viewBox="0 0 234.46722 234.46719"
   sodipodi:docname="robot4-reverse.svg"
   inkscape:version="1.1.2 (0a00cf5339, 2022-02-04)"
   inkscape:export-filename="/home/user/projects/vytal-extension/src/assets/icon48.png"
   inkscape:export-xdpi="19.653069"
   inkscape:export-ydpi="19.653069"
   xmlns:inkscape="http://www.inkscape.org/namespaces/inkscape"
   xmlns:sodipodi="http://sodipodi.sourceforge.net/DTD/sodipodi-0.dtd"
   xmlns="http://www.w3.org/2000/svg"
   xmlns:svg="http://www.w3.org/2000/svg">
  <defs
     id="defs6">
    <linearGradient
       id="linearGradient4879"
       inkscape:swatch="solid">
      <stop
         style="stop-color:#7137c8;stop-opacity:1;"
         offset="0"
         id="stop4877" />
    </linearGradient>
  </defs>
  <sodipodi:namedview
     id="namedview4"
     pagecolor="#ffffff"
     bordercolor="#000000"
     borderopacity="0.25"
     inkscape:showpageshadow="2"
     inkscape:pageopacity="0.0"
     inkscape:pagecheckerboard="0"
     inkscape:deskcolor="#d1d1d1"
     inkscape:pageshadow="2"
     showgrid="false"
     fit-margin-top="0"
     fit-margin-left="0"
     fit-margin-right="0"
     fit-margin-bottom="0"
     inkscape:zoom="1.8101934"
     inkscape:cx="179.53883"
     inkscape:cy="170.14757"
     inkscape:window-width="1920"
     inkscape:window-height="1012"
     inkscape:window-x="0"
     inkscape:window-y="0"
     inkscape:window-maximized="1"
     inkscape:current-layer="g10" />
  <g
     id="g8"
     inkscape:groupmode="layer"
     inkscape:label="ink_ext_XXXXXX"
     transform="matrix(1.3333333,0,0,-1.3333333,-398.65882,383.92917)"
     style="display:inline">
    <g
       id="g10"
       transform="scale(0.1)"
       style="display:inline">
      <ellipse
         style="display:inline;opacity:1;fill:#000000;fill-opacity:1;stroke:#ffffff;stroke-width:112.5;stroke-miterlimit:4;stroke-dasharray:none;stroke-opacity:1;stop-color:#000000"
         id="path4873"
         cx="3869.1934"
         cy="-2000.2168"
         transform="scale(1,-1)"
         rx="823.00214"
         ry="823.00201" />
      <ellipse
         style="display:inline;fill:#ffffff;fill-opacity:1;stroke:none;stroke-width:137.156;stroke-miterlimit:4;stroke-dasharray:none;stroke-opacity:1;stop-color:#000000"
         id="path4873-3"
         cx="3869.1934"
         cy="-1955.2168"
         transform="scale(1,-1)"
         rx="675"
         ry="450" />
      <path
         d="m 3560.2618,2126.2986 c -53.92,0 -97.78,-43.86 -97.78,-97.78 0,-53.92 43.86,-97.78 97.78,-97.78 53.92,0 97.78,43.86 97.78,97.78 0,53.92 -43.86,97.78 -97.78,97.78"
         style="display:inline;fill:#000000;fill-opacity:1;fill-rule:nonzero;stroke:none"
         id="path42" />
      <path
         d="m 4178.1238,2126.2986 c -53.92,0 -97.78,-43.86 -97.78,-97.78 0,-53.92 43.86,-97.78 97.78,-97.78 53.91,0 97.78,43.86 97.78,97.78 0,53.92 -43.87,97.78 -97.78,97.78"
         style="display:inline;fill:#000000;fill-opacity:1;fill-rule:nonzero;stroke:none"
         id="path44" />
      <path
         d="m 3859.6918,1705.3886 c -73.63,0 -140.07,39.16 -169.26,99.77 -7.55,15.66 -0.97,34.47 14.69,42.01 15.67,7.53 34.48,0.96 42.02,-14.69 18.77,-38.97 62.95,-64.14 112.55,-64.14 49.6,0 93.77,25.17 112.55,64.14 7.55,15.65 26.36,22.22 42.01,14.69 15.66,-7.54 22.24,-26.35 14.7,-42.01 -29.2,-60.61 -95.63,-99.77 -169.26,-99.77"
         style="display:none;fill:#ffffff;fill-opacity:1;fill-rule:nonzero;stroke:none"
         id="path46" />
      <rect
         style="display:inline;fill:#ffffff;stroke:none;stroke-width:49.462;stroke-miterlimit:4;stroke-dasharray:none;stroke-opacity:1;stop-color:#000000;fill-opacity:1"
         id="rect5622-7"
         width="112.47218"
         height="939.31287"
         x="4635.9731"
         y="-2879.5088"
         transform="scale(1,-1)"
         rx="56.236088" />
      <rect
         style="display:inline;fill:#ffffff;stroke:none;stroke-width:49.462;stroke-miterlimit:4;stroke-dasharray:none;stroke-opacity:1;stop-color:#000000;fill-opacity:1"
         id="rect5622-7-5"
         width="112.47218"
         height="939.31287"
         x="2989.9412"
         y="-2879.4688"
         transform="scale(1,-1)"
         rx="56.236088" />
      <path
         d="m 3869.1974,1669.7587 c -94.664,0 -171.6727,70.0387 -171.6727,156.1273 0,13.1035 11.6736,23.7205 26.0728,23.7205 h 291.1833 c 14.3993,0 26.0811,-10.617 26.0811,-23.7205 0,-86.0886 -77.0087,-156.1273 -171.6645,-156.1273"
         style="fill:#000000;fill-opacity:1;fill-rule:nonzero;stroke:none;stroke-width:0.790115"
         id="path84"
         sodipodi:nodetypes="cssssc" />
    </g>
  </g>
</svg>
