<?xml version="1.0" encoding="UTF-8" standalone="no"?>
<!-- Created with Inkscape (http://www.inkscape.org/) -->

<svg
   version="1.1"
   id="svg2"
   width="241.46724"
   height="241.46719"
   viewBox="0 0 241.46724 241.46719"
   xmlns:xlink="http://www.w3.org/1999/xlink"
   xmlns="http://www.w3.org/2000/svg"
   xmlns:svg="http://www.w3.org/2000/svg">
  <defs
     id="defs6">
    <linearGradient
       id="linearGradient4879">
      <stop
         style="stop-color:#7137c8;stop-opacity:1;"
         offset="0"
         id="stop4877" />
    </linearGradient>
  </defs>
  <g
     id="g8"
     transform="matrix(1.3333333,0,0,-1.3333333,-395.15881,387.42917)"
     style="display:inline">
    <g
       id="g10"
       transform="scale(0.1)"
       style="display:inline">
      <ellipse
         style="display:inline;opacity:1;fill:none;fill-opacity:1;stroke:#ffffff;stroke-width:165;stroke-miterlimit:4;stroke-dasharray:none;stroke-opacity:1;stop-color:#000000"
         id="path4873"
         cx="3869.1934"
         cy="-2000.2168"
         transform="scale(1,-1)"
         rx="823.00214"
         ry="823.00201" />
      <ellipse
         style="display:inline;fill:#ffffff;fill-opacity:1;stroke:none;stroke-width:130.049;stroke-miterlimit:4;stroke-dasharray:none;stroke-opacity:1;stop-color:#000000"
         id="path4873-3"
         cx="3869.1934"
         cy="-1970.2167"
         transform="scale(1,-1)"
         rx="606.85437"
         ry="450" />
      <path
         d="m 3859.6918,1705.3886 c -73.63,0 -140.07,39.16 -169.26,99.77 -7.55,15.66 -0.97,34.47 14.69,42.01 15.67,7.53 34.48,0.96 42.02,-14.69 18.77,-38.97 62.95,-64.14 112.55,-64.14 49.6,0 93.77,25.17 112.55,64.14 7.55,15.65 26.36,22.22 42.01,14.69 15.66,-7.54 22.24,-26.35 14.7,-42.01 -29.2,-60.61 -95.63,-99.77 -169.26,-99.77"
         style="display:none;fill:#ffffff;fill-opacity:1;fill-rule:nonzero;stroke:none"
         id="path46" />
      <rect
         style="display:inline;fill:#ffffff;fill-opacity:1;stroke:none;stroke-width:61.2155;stroke-miterlimit:4;stroke-dasharray:none;stroke-opacity:1;stop-color:#000000"
         id="rect5622-7-5"
         width="165.03194"
         height="980.54431"
         x="2963.6912"
         y="-2905.7188"
         transform="scale(1,-1)"
         rx="82.515961" />
      <rect
         style="display:inline;fill:#ffffff;fill-opacity:1;stroke:none;stroke-width:61.2155;stroke-miterlimit:4;stroke-dasharray:none;stroke-opacity:1;stop-color:#000000"
         id="rect5622-7-5-2"
         width="165.03194"
         height="980.54431"
         x="4609.6636"
         y="-2905.7188"
         transform="scale(1,-1)"
         rx="82.515961" />
      <g
         id="g14963"
         clip-path="none"
         transform="translate(5.3623619e-4,12.188046)"
         style="opacity:1">
        <g
           id="g14961">
          <path
             d="m 3560.2618,2126.2986 c -53.92,0 -97.78,-43.86 -97.78,-97.78 0,-53.92 43.86,-97.78 97.78,-97.78 53.92,0 97.78,43.86 97.78,97.78 0,53.92 -43.86,97.78 -97.78,97.78"
             style="display:inline;fill:#a55eea;fill-opacity:1;fill-rule:nonzero;stroke:none"
             id="path42" />
          <path
             d="m 4178.1238,2126.2986 c -53.92,0 -97.78,-43.86 -97.78,-97.78 0,-53.92 43.86,-97.78 97.78,-97.78 53.91,0 97.78,43.86 97.78,97.78 0,53.92 -43.87,97.78 -97.78,97.78"
             style="display:inline;fill:#a55eea;fill-opacity:1;fill-rule:nonzero;stroke:none"
             id="path44" />
          <path
             d="m 3869.1974,1669.7587 c -94.664,0 -171.6727,70.0387 -171.6727,156.1273 0,13.1035 11.6736,23.7205 26.0728,23.7205 h 291.1833 c 14.3993,0 26.0811,-10.617 26.0811,-23.7205 0,-86.0886 -77.0087,-156.1273 -171.6645,-156.1273"
             style="fill:#a55eea;fill-opacity:1;fill-rule:nonzero;stroke:none;stroke-width:0.790115"
             id="path84" />
        </g>
      </g>
      <use
         x="0"
         y="0"
         xlink:href="#g14961"
         id="use14967"
         transform="translate(5.3623619e-4,12.188046)"
         width="100%"
         height="100%" />
    </g>
  </g>
</svg>
