<?xml version="1.0" encoding="UTF-8"?>
<svg width="720px" height="158px" viewBox="0 0 720 158" version="1.1" xmlns="http://www.w3.org/2000/svg" xmlns:xlink="http://www.w3.org/1999/xlink">
    <!-- Generator: Sketch 51.1 (57501) - http://www.bohemiancoding.com/sketch -->
    <title>nord-logo-horizontal</title>
    <desc>Created with Sketch.</desc>
    <defs></defs>
    <g id="nord-logo-horizontal" stroke="none" stroke-width="1" fill="none" fill-rule="evenodd">
        <g id="global/logos/horizontal/nordvpn">
            <path d="M709.840683,65.915493 C704.225352,65.915493 699.71831,61.3797695 699.71831,55.7746479 C699.71831,50.206402 704.225352,45.6338028 709.840683,45.6338028 C715.456015,45.6338028 720,50.206402 720,55.7746479 C720,61.3797695 715.456015,65.915493 709.840683,65.915493 Z M709.840683,47.4775928 C705.296698,47.4775928 701.639344,51.1651729 701.639344,55.7746479 C701.639344,60.3841229 705.296698,64.0717029 709.840683,64.0717029 C714.347726,64.0717029 718.078966,60.3841229 718.078966,55.7746479 C718.078966,51.1651729 714.347726,47.4775928 709.840683,47.4775928 Z M708.326022,57.3971831 L708.326022,61.5641485 L705.924729,61.5641485 L705.924729,49.9851472 L710.505657,49.9851472 C712.759178,49.9851472 714.643269,51.1651729 714.643269,53.6358515 C714.643269,55.3690141 713.719695,56.4384123 712.426691,56.9546735 L714.827984,61.5641485 L712.205033,61.5641485 L710.099284,57.3971831 L708.326022,57.3971831 Z M712.205033,53.7096031 C712.205033,52.5664533 711.244516,52.2714469 710.320942,52.2714469 L708.326022,52.2714469 L708.326022,55.1477593 L710.357885,55.1477593 C711.244516,55.1477593 712.205033,54.7790013 712.205033,53.7096031 Z" id="®" fill="#373B42"></path>
            <path d="M300.067602,121.690141 L265.385912,69.6676056 L265.385912,121.690141 L249.971827,121.690141 L249.971827,46.2574648 L267.794362,46.2574648 L300.549292,95.4861972 L300.549292,46.2574648 L315.963376,46.2574648 L315.963376,121.690141 L300.067602,121.690141 Z M325.145915,96.0642254 C325.145915,80.7464789 337.766197,69.0895775 353.372958,69.0895775 C368.88338,69.0895775 381.310986,80.4574648 381.310986,95.7752113 C381.310986,111.285634 368.690704,122.846197 353.180282,122.846197 C337.573521,122.846197 325.145915,111.574648 325.145915,96.0642254 Z M340.56,95.8715493 C340.56,103.67493 346.243944,109.069859 353.27662,109.069859 C360.309296,109.069859 365.896901,103.67493 365.896901,95.8715493 C365.896901,88.164507 360.212958,82.7695775 353.180282,82.7695775 C346.147606,82.7695775 340.56,88.164507 340.56,95.8715493 Z M418.157731,70.2456338 L418.157731,84.9853521 C416.134632,84.6 414.015196,84.6 413.34083,84.6 C406.115477,84.6 401.1059,89.6095775 401.1059,99.1470423 L401.1059,121.690141 L386.366182,121.690141 L386.366182,70.2456338 L400.62421,70.2456338 L400.62421,77.76 L400.816886,77.76 C403.610689,71.8833803 408.812942,69.6676056 414.111534,69.6676056 C415.26759,69.6676056 417.098013,69.9566197 418.157731,70.2456338 Z M461.565634,121.690141 L461.565634,115.139155 L461.372958,115.139155 C456.556056,122.171831 448.849014,122.653521 445.380845,122.653521 C430.448451,122.653521 420.910986,109.744225 420.910986,95.8715493 C420.910986,82.8659155 430.833803,69.2822535 445.573521,69.2822535 C448.56,69.2822535 455.689014,69.8602817 460.987606,76.1222535 L461.180282,76.1222535 L461.180282,43.2709859 L476.112676,43.2709859 L476.112676,121.690141 L461.565634,121.690141 Z M461.565634,95.8715493 C461.565634,88.164507 455.88169,82.8659155 448.849014,82.8659155 C441.816338,82.8659155 436.132394,88.164507 436.132394,95.8715493 C436.132394,103.67493 441.816338,109.069859 448.849014,109.069859 C455.88169,109.069859 461.565634,103.67493 461.565634,95.8715493 Z M508.051268,121.690141 L480.787606,46.2574648 L497.646761,46.2574648 L517.20338,103.578592 L536.856338,46.2574648 L553.426479,46.2574648 L526.066479,121.690141 L508.051268,121.690141 Z M614.844507,70.4383099 C614.844507,87.1047887 603.091268,95.1008451 587.291831,95.1008451 L575.442254,95.1008451 L575.442254,121.690141 L559.835493,121.690141 L559.835493,46.2574648 L587.869859,46.2574648 C602.99493,46.2574648 614.844507,54.4461972 614.844507,70.4383099 Z M599.141408,70.823662 C599.141408,63.5019718 592.975775,60.9971831 586.521127,60.9971831 L575.442254,60.9971831 L575.442254,80.5538028 L586.617465,80.5538028 C592.783099,80.5538028 599.141408,77.856338 599.141408,70.823662 Z M672.794366,121.690141 L638.112676,69.6676056 L638.112676,121.690141 L622.698592,121.690141 L622.698592,46.2574648 L640.521127,46.2574648 L673.276056,95.4861972 L673.276056,46.2574648 L688.690141,46.2574648 L688.690141,121.690141 L672.794366,121.690141 Z" id="NordVPN" fill="#373B42"></path>
            <path d="M18.8134777,157.183099 C6.97925691,140.855593 0,120.766132 0,99.0432916 C0,44.3431921 44.2539653,0 98.8439981,0 C153.434031,0 197.687996,44.3431921 197.687996,99.0432916 C197.687996,120.765991 190.70883,140.855331 178.87475,157.18278 L131.400097,79.9339131 L126.815565,87.6900449 L131.466937,109.261148 L98.8439981,53.3310032 L78.663402,87.4726248 L83.361656,109.261148 L66.2617567,79.9781408 L18.8134777,157.183099 Z" id="logomark" fill="#4687FF"></path>
        </g>
    </g>
</svg>