<?xml version="1.0" encoding="utf-8"?>
<!-- Generator: Adobe Illustrator 26.1.0, SVG Export Plug-In . SVG Version: 6.00 Build 0)  -->
<svg version="1.1" id="Layer_1" xmlns="http://www.w3.org/2000/svg" xmlns:xlink="http://www.w3.org/1999/xlink" x="0px" y="0px"
	 viewBox="0 0 4520 787" style="enable-background:new 0 0 4520 787;" xml:space="preserve">
<style type="text/css">
	.st0{clip-path:url(#SVGID_00000101076283012793058550000013277607966434688140_);}
	.st1{fill:#6D4AFF;}
	.st2{fill:#1B1340;}
	.st3{fill-rule:evenodd;clip-rule:evenodd;fill:#6D4AFF;}
	.st4{fill-rule:evenodd;clip-rule:evenodd;fill:url(#SVGID_00000143612414778509468690000005354010894178983867_);}
	.st5{fill:url(#SVGID_00000164510369689970512730000008890151008062097281_);}
</style>
<g>
	<defs>
		<rect id="SVGID_1_" width="4520" height="787"/>
	</defs>
	<clipPath id="SVGID_00000124143326424118090040000000686822535870151078_">
		<use xlink:href="#SVGID_1_"  style="overflow:visible;"/>
	</clipPath>
	<g style="clip-path:url(#SVGID_00000124143326424118090040000000686822535870151078_);">
		<path class="st1" d="M3909.1,150h-223.4v483.9h88.5V513.4c0-11.7,4.7-23,13-31.3c8.3-8.3,19.5-12.9,31.2-12.9h90.7
			c42.2,0,82.7-16.8,112.6-46.6c29.9-29.9,46.7-70.4,46.7-112.6c0.1-21-4-41.8-11.9-61.2c-8-19.4-19.7-37-34.5-51.9
			c-14.8-14.9-32.4-26.7-51.8-34.7C3950.8,154.1,3930,150,3909.1,150L3909.1,150z M3978.7,308.8c0,9.9-1.9,19.7-5.8,28.9
			c-3.8,9.2-9.4,17.5-16.4,24.5c-7,7-15.4,12.6-24.5,16.3c-9.2,3.8-19,5.7-28.9,5.7h-129.4V233.4h129.4c10,0,19.8,2,29,5.8
			c9.2,3.8,17.5,9.4,24.5,16.5c7,7,12.6,15.4,16.3,24.6c3.8,9.2,5.7,19.1,5.6,29L3978.7,308.8z"/>
		<path class="st1" d="M3374.9,632.1l-178.3-483.5h100.7l117.3,346c4.6,12.4,7.9,25.2,9.9,38.2h1c1.4-13.2,4.8-26,9.9-38.2
			l117.6-346h101.3l-179.2,483.5H3374.9z"/>
		<path class="st1" d="M4101.3,632.1V148.6h77.5l228.3,299.9c8.2,10.3,15.3,21.5,21.3,33.2h1.4c-1.5-14.6-2.3-29.2-2.2-43.9V148.6
			h91.5v483.5h-77.5l-228.9-299.9c-8.1-10.4-15.2-21.5-21.2-33.2h-0.8c1.2,14.6,1.7,29.2,1.5,43.9v289.3H4101.3z"/>
		<path class="st2" d="M1434.2,147.2h-223.4v483.9h88.5V510.6c0-11.7,4.7-23,12.9-31.3c8.3-8.3,19.5-12.9,31.2-12.9h90.7
			c42.2,0,82.7-16.8,112.6-46.6s46.6-70.4,46.6-112.6c0.1-21-4-41.8-11.9-61.2c-8-19.4-19.7-37-34.5-51.9
			c-14.8-14.9-32.4-26.7-51.8-34.7C1475.9,151.3,1455.2,147.2,1434.2,147.2L1434.2,147.2z M1503.9,306c0,9.9-1.9,19.7-5.8,28.9
			c-3.8,9.2-9.4,17.5-16.4,24.5c-7,7-15.3,12.6-24.5,16.3c-9.2,3.8-19,5.7-28.9,5.7h-129.4V230.6h129.4c9.9,0,19.8,2,29,5.8
			c9.2,3.8,17.5,9.4,24.5,16.5c7,7,12.6,15.4,16.3,24.6c3.8,9.2,5.7,19.1,5.6,29L1503.9,306z"/>
		<path class="st2" d="M1607.4,631.3v-192c0-78.3,45.8-140.6,137.3-140.6c14.7-0.2,29.4,1.4,43.7,4.8v79
			c-10.4-0.7-19.9-0.7-23.6-0.7c-48.5,0-69.7,22.2-69.7,67.2v182.4H1607.4z"/>
		<path class="st2" d="M1814.6,468.3c0-96.3,72.8-169.7,174-169.7c101.2,0,173.9,73.5,173.9,169.7c0,96.3-72.8,170.5-173.9,170.5
			S1814.6,564.7,1814.6,468.3z M2075.9,468.3c0-54.7-36.7-93.6-87.3-93.6c-50.6,0-87.4,38.8-87.4,93.6c0,54.7,36.7,93.6,87.4,93.6
			C2039.3,561.9,2075.9,523.8,2075.9,468.3L2075.9,468.3z"/>
		<path class="st2" d="M2417.5,375.4h-94.9v121.3c0,42.3,15.2,61.6,58.8,61.6c4.2,0,14.6,0,27.8-0.7v71.5
			c-16.7,4.8-33.9,7.3-51.3,7.6c-73.5,0-123.4-44.3-123.4-128.2V375.4h-58.8v-69.7h14.6c11.7,0,23-4.7,31.2-12.9
			c8.3-8.3,12.9-19.5,12.9-31.2v-66.3h88.1v110.2h94.9V375.4z"/>
		<path class="st2" d="M2443.9,468.3c0-96.3,72.8-169.7,173.9-169.7c101.1,0,174,73.5,174,169.7c0,96.3-72.8,170.5-174,170.5
			S2443.9,564.7,2443.9,468.3z M2705.2,468.3c0-54.7-36.7-93.6-87.4-93.6s-87.3,38.8-87.3,93.6c0,54.7,36.7,93.6,87.3,93.6
			C2668.4,561.9,2705.2,523.8,2705.2,468.3z"/>
		<path class="st2" d="M2837.5,631.3V445.8c0-86,54.8-147.6,152.5-147.6c97.8,0,151.8,62,151.8,147.6v185h-87.3V453.1
			c0-47.8-21.5-77.6-64.5-77.6s-64.4,29.9-64.4,77.6v178.2H2837.5z"/>
		<path class="st3" d="M346.1,740.3c32.8,59.3,116.9,62.6,154,5.9l346.7-528.4c36.8-56,1.6-131.2-65-138.8L100.4,0.9
			C27.7-7.5-24,69.8,11.3,133.8L346.1,740.3z"/>
		
			<linearGradient id="SVGID_00000083796956185287615240000010885015769944861357_" gradientUnits="userSpaceOnUse" x1="536.4819" y1="1113.179" x2="292.8189" y2="64.084" gradientTransform="matrix(1 0 0 -1 0 788)">
			<stop  offset="0.4799" style="stop-color:#24ECC6;stop-opacity:0"/>
			<stop  offset="0.9944" style="stop-color:#24ECC6"/>
		</linearGradient>
		<path style="fill-rule:evenodd;clip-rule:evenodd;fill:url(#SVGID_00000083796956185287615240000010885015769944861357_);" d="
			M346.1,740.3c32.8,59.3,116.9,62.6,154,5.9l346.7-528.4c36.8-56,1.6-131.2-65-138.8L100.4,0.8C27.8-7.5-24,69.7,11.4,133.7
			L346.1,740.3z"/>
		
			<linearGradient id="SVGID_00000005978595599017039650000002259067875620926859_" gradientUnits="userSpaceOnUse" x1="759.6771" y1="79.3122" x2="219.4247" y2="1003.199" gradientTransform="matrix(1 0 0 -1 0 788)">
			<stop  offset="6.601250e-02" style="stop-color:#ABFFEF"/>
			<stop  offset="0.4499" style="stop-color:#CAC9FF"/>
			<stop  offset="1" style="stop-color:#6D4AFF"/>
		</linearGradient>
		<path style="fill:url(#SVGID_00000005978595599017039650000002259067875620926859_);" d="M396.4,638.7L365.6,685
			c-12.5,18.7-40.4,17.6-51.2-2.1l31.7,57.5c5.7,10.2,12.8,18.8,21.1,25.7l0,0c39.3,33,102.2,27.1,133-19.8l346.7-528.4
			c36.8-56,1.6-131.2-65-138.8L100.4,0.9C27.7-7.5-24,69.8,11.3,133.8l2.7,4.9l580.1,67.1c37,4.3,56.5,46,36,77.1L396.4,638.7z"/>
	</g>
</g>
</svg>
