<svg width="138" height="32" viewBox="0 0 138 32" fill="none" xmlns="http://www.w3.org/2000/svg">
<path d="M131.601 9.89524C131.601 11.6485 133.023 13.0909 134.792 13.0909C136.561 13.0909 138 11.6485 138 9.89524C138 8.13329 136.561 6.69092 134.792 6.69092C133.023 6.69092 131.601 8.13329 131.601 9.89524ZM132.338 9.89524C132.338 8.47877 133.413 7.37324 134.792 7.37324C136.17 7.37324 137.246 8.47877 137.246 9.89524C137.246 11.3031 136.17 12.4086 134.792 12.4086C133.413 12.4086 132.338 11.3031 132.338 9.89524ZM135.312 11.5967H136.222L135.529 10.2666C135.928 10.0939 136.196 9.7225 136.196 9.26474C136.196 8.64288 135.676 8.14193 135.009 8.14193H133.638V11.5967H134.462V10.3962H134.714L135.312 11.5967ZM134.462 9.7225V8.81561H134.861C135.173 8.81561 135.364 8.98835 135.364 9.27337C135.364 9.54976 135.173 9.7225 134.861 9.7225H134.462Z" fill="#222E3A"/>
<path d="M129.761 13.4249H125.658L121.648 17.737V6.69092H118.512V25.0182H121.648V21.9549L122.946 20.5882L126.011 25.0182H129.856L125.115 18.3026L129.761 13.4249Z" fill="#222E3A"/>
<path d="M117.348 13.3923C117.115 13.3688 116.89 13.3923 116.634 13.3923C115.656 13.3923 114.067 13.6276 113.369 15.1574V13.3923H110.367V25.0182H113.462V19.723C113.462 17.2284 114.764 16.3018 116.346 16.3018C116.626 16.3018 117.348 16.3018 117.348 16.3018V13.3923Z" fill="#222E3A"/>
<path d="M98.4417 21.6324C98.4417 23.3939 99.9395 25.0182 102.397 25.0182C104.105 25.0182 105.205 24.5228 105.79 23.6306L105.896 25.0182H108.622V23.196V17.6598C108.622 15.395 107.265 13.3818 103.614 13.3818C100.525 13.3818 98.8629 15.3264 98.6757 17.0879L101.437 17.6598C101.531 16.6761 102.28 15.8296 103.637 15.8296C104.948 15.8296 105.58 16.4931 105.58 17.2938C105.58 17.6827 105.369 17.7205 104.714 17.812L101.882 18.2238C99.9629 18.4983 98.4417 19.6193 98.4417 21.6324ZM103.052 22.7534C102.046 22.7534 101.554 22.1128 101.554 21.4494C101.554 20.5801 102.186 20.1454 102.982 20.0311L105.58 19.6422V20.4279C105.58 22.4182 104.363 22.7534 103.052 22.7534Z" fill="#222E3A"/>
<path d="M89.9086 18.2083C89.9786 16.9359 90.7482 15.9462 92.0542 15.9462C93.5468 15.9462 94.1765 16.9594 94.1765 18.2554V25.0182H97.2782V17.7135C97.2782 15.1686 95.9256 13.4095 93.0104 13.4095C91.9143 13.4095 90.6549 13.4956 89.9086 14.391V6.69092H86.8069V25.0182H89.9086V18.2083Z" fill="#222E3A"/>
<path d="M76.3354 21.672C76.4765 22.9267 77.6517 25.0182 81.1304 25.0182C84.1625 25.0182 85.6433 23.2404 85.6433 21.4479C85.6433 19.8347 84.4916 18.5128 82.2116 18.0646L80.5663 17.7286C79.9317 17.6165 79.5086 17.2804 79.5086 16.7427C79.5086 16.1153 80.1667 15.6448 80.9894 15.6448C82.3056 15.6448 82.7992 16.4738 82.8933 17.1236L85.5023 16.5635C85.3613 15.3759 84.2565 13.3818 80.9659 13.3818C78.4744 13.3818 76.641 15.0175 76.641 16.9892C76.641 18.5352 77.6517 19.8123 79.8847 20.2828L81.4125 20.6189C82.3057 20.7982 82.6582 21.2015 82.6582 21.6944C82.6582 22.2769 82.1646 22.7923 81.1304 22.7923C79.7671 22.7923 79.0855 21.9857 79.015 21.1118L76.3354 21.672Z" fill="#222E3A"/>
<path fill-rule="evenodd" clip-rule="evenodd" d="M73.1867 11.3243C73.1863 11.3085 73.1861 11.2926 73.1861 11.2766C73.1861 10.2323 74.0326 9.38572 75.0768 9.38572H75.7538V6.69092H74.2274C71.8662 6.69092 70.0876 8.4657 70.0876 10.9972V13.3934H68.1912V16.3027H70.0876V25.0182H73.1867V16.3027H75.7538V13.3934H73.1867V11.3352C73.1867 11.3316 73.1867 11.3279 73.1867 11.3243Z" fill="#222E3A"/>
<path d="M67.0275 13.3923C66.7948 13.3688 66.5692 13.3923 66.3132 13.3923C65.3359 13.3923 63.7465 13.6276 63.0484 15.1574V13.3923H60.0466V25.0182H63.1415V19.723C63.1415 17.2284 64.4436 16.3018 66.0259 16.3018C66.3052 16.3018 67.0275 16.3018 67.0275 16.3018V13.3923Z" fill="#222E3A"/>
<path d="M55.4684 25.0182H58.3014V22.9218V13.3818H55.213V20.1658C55.213 21.5084 54.3784 22.1444 53.0084 22.1444C51.5687 22.1444 50.9185 21.108 50.9185 19.8125V13.3818H47.8301V20.4485C47.8301 22.9689 49.4091 25.0182 52.1724 25.0182C53.3799 25.0182 54.7486 24.8533 55.3755 23.7698L55.4684 25.0182Z" fill="#222E3A"/>
<path d="M46.418 11.1817C46.02 9.22919 44.3786 6.69092 40.101 6.69092C36.7684 6.69092 33.9581 9.03394 33.9581 12.1092C33.9581 14.7206 35.7736 16.5023 38.5839 17.0637L41.0461 17.5518C42.4139 17.8203 43.1849 18.8922 43.1849 19.8928C43.1849 21.1132 42.1652 22.0162 40.3248 22.0162C37.8378 22.0162 36.6192 20.4786 36.47 18.7701L33.2866 19.6C33.5602 22.065 35.6244 25.0182 40.3 25.0182C44.4035 25.0182 46.6667 22.3335 46.6667 19.6732C46.6667 17.2325 44.9506 14.8915 41.7424 14.2813L39.2803 13.8176C37.987 13.5735 37.3653 12.8169 37.3653 11.8651C37.3653 10.718 38.4596 9.6685 40.1259 9.6685C42.3642 9.6685 43.16 11.1573 43.3341 12.1092L46.418 11.1817Z" fill="#222E3A"/>
<path fill-rule="evenodd" clip-rule="evenodd" d="M20.266 0.00279935C20.2294 0.00187183 20.1927 0.000941714 20.156 0H12.8113C8.0034 0.259382 5.98238 3.05263 5.44016 4.54022C3.33323 10.8557 2.02219 19.0357 1.07579 24.9405C1.05733 25.0557 1.03901 25.17 1.02083 25.2834L0.713349 28.0899C0.695109 28.533 0.736508 29.0128 0.855903 29.4787C1.44645 31.1909 3.22706 32.6333 7.14993 31.1963L7.15035 31.1987C10.856 29.5826 15.2333 27.5744 19.76 25.3215C22.3371 23.8312 26.1122 20.4051 26.3058 16.0775C26.2709 12.8677 26.1634 9.50253 25.9454 6.22756L25.9441 6.23004L25.944 6.2074C25.9261 5.9384 25.9074 5.62713 25.888 5.3031C25.8506 4.68082 25.8104 4.01145 25.7672 3.50396C25.7032 3.15213 25.6213 2.83407 25.5202 2.5467C24.8914 1.14372 23.6596 0.467181 22.3602 0.143657C21.7676 0.0409009 21.0396 0.0224302 20.266 0.00279935ZM19.9857 6.53458C19.9857 6.17157 19.6914 5.87729 19.3284 5.87729C15.1537 5.87729 11.7695 9.26152 11.7695 13.4362V15.9662C11.7695 18.2101 9.95044 20.0292 7.70654 20.0292C7.33255 20.0292 7.02938 20.3324 7.02938 20.7063V22.7745C7.02938 23.1375 7.32366 23.4318 7.68667 23.4318C11.8613 23.4318 15.2456 20.0476 15.2456 15.8729V13.3429C15.2456 11.099 17.0646 9.27993 19.3085 9.27993C19.6825 9.27993 19.9857 8.97675 19.9857 8.60277V6.53458Z" fill="#178A9E"/>
<path d="M19.3283 5.8772C19.6913 5.8772 19.9856 6.17148 19.9856 6.53449V8.60268C19.9856 8.97666 19.6824 9.27984 19.3084 9.27984V9.27984C17.0645 9.27984 15.2455 11.0989 15.2455 13.3428V16.0275C15.2455 20.2022 11.8613 23.5864 7.68659 23.5864V23.5864C7.32358 23.5864 7.0293 23.2921 7.0293 22.9291L7.0293 20.8609C7.0293 20.4869 7.33247 20.1838 7.70646 20.1838V20.1838C9.95036 20.1838 11.7694 18.3647 11.7694 16.1208V13.4361C11.7694 9.26143 15.1536 5.8772 19.3283 5.8772V5.8772Z" fill="white"/>
</svg>
