<?xml version="1.0" encoding="UTF-8"?>
<svg width="6.3182mm" height="6.3183mm" version="1.1" viewBox="0 0 6.3182 6.3183" xmlns="http://www.w3.org/2000/svg">
<g transform="translate(-45.871 -90.558)">
<g fill="#fff" stroke-width=".26458" aria-label="VPN">
<path d="m47.832 92.481q0.08819 0 0.15169 0.05997 0.06703 0.05644 0.06703 0.14464 0 0.04586-0.02117 0.09525l-0.87136 2.0391q-0.03175 0.07055-0.09172 0.10583-0.05645 0.03175-0.11642 0.03175-0.05644-0.0035-0.10936-0.03528-0.05292-0.03528-0.08114-0.09878l-0.87136-2.0461q-0.01058-0.02117-0.01411-0.04233-0.0035-0.0247-0.0035-0.04586 0-0.1023 0.07408-0.15522 0.07408-0.05644 0.14111-0.05644 0.13406 0 0.19403 0.13758l0.77258 1.8168-0.12347 0.0035 0.70908-1.8203q0.05997-0.13406 0.19403-0.13406z"/>
<path d="m49.229 92.488q0.18344 0 0.34219 0.10583 0.16228 0.10583 0.26106 0.28575 0.09878 0.17992 0.09878 0.40217 0 0.21872-0.09878 0.39864-0.09878 0.17992-0.26106 0.28928-0.15875 0.10583-0.34219 0.10583h-0.64911l0.03528-0.0635v0.73025q0 0.09172-0.05645 0.15522-0.05644 0.05997-0.14817 0.05997-0.08819 0-0.14464-0.05997-0.05644-0.0635-0.05644-0.15522v-2.0391q0-0.09172 0.05997-0.1517 0.0635-0.0635 0.15522-0.0635zm0 1.1853q0.06703 0 0.13053-0.05644 0.0635-0.05645 0.10583-0.14464 0.04233-0.09172 0.04233-0.1905 0-0.1023-0.04233-0.1905-0.04233-0.08819-0.10583-0.14111-0.0635-0.05644-0.13053-0.05644h-0.65617l0.04233-0.0635v0.89958l-0.03881-0.05644z"/>
<path d="m51.998 92.488q0.08467 0 0.13758 0.05644 0.05292 0.05644 0.05292 0.14111v2.0567q0 0.09172-0.0635 0.15522-0.05997 0.05997-0.1517 0.05997-0.04586 0-0.09525-0.01411-0.04586-0.01764-0.07056-0.04586l-1.3864-1.7604 0.09172-0.05644v1.6792q0 0.08467-0.05644 0.14111-0.05292 0.05644-0.14111 0.05644-0.08467 0-0.13758-0.05644-0.05292-0.05644-0.05292-0.14111v-2.0567q0-0.09172 0.05997-0.1517 0.0635-0.0635 0.15522-0.0635 0.04939 0 0.1023 0.02117 0.05292 0.01764 0.07761 0.05644l1.3441 1.7145-0.05997 0.04233v-1.6369q0-0.08467 0.05292-0.14111 0.05292-0.05644 0.14111-0.05644z"/>
</g>
</g>
</svg>
